<?xml version="1.0" encoding="UTF-8"?>
<svg id="Layer_2" data-name="Layer 2" xmlns="http://www.w3.org/2000/svg" viewBox="0 0 137.21 145">
  <defs>
    <style>
      .cls-1 {
        fill: none;
        stroke: #231f20;
        stroke-miterlimit: 10;
      }

      .cls-2 {
        fill: #231f20;
        stroke-width: 0px;
      }
    </style>
  </defs>
  <g id="Layer_1-2" data-name="Layer 1">
    <g>
      <path class="cls-2" d="M17.81,126.09v-18.97h7.6c1.4,0,2.56.21,3.49.62.93.41,1.63.99,2.1,1.72s.7,1.57.7,2.52c0,.74-.15,1.39-.44,1.95-.3.56-.7,1.02-1.22,1.37s-1.1.61-1.76.75v.19c.72.03,1.4.23,2.03.61.63.38,1.15.9,1.54,1.58s.59,1.48.59,2.41c0,1.01-.25,1.9-.75,2.69-.5.79-1.23,1.41-2.2,1.87s-2.17.69-3.58.69h-8.11ZM21.83,115.05h2.97c.55,0,1.04-.1,1.47-.29.43-.19.77-.47,1.02-.83.25-.36.38-.79.38-1.29,0-.69-.24-1.24-.73-1.66-.49-.42-1.17-.63-2.06-.63h-3.05v4.7ZM21.83,122.81h3.27c1.12,0,1.93-.21,2.45-.64s.77-1,.77-1.72c0-.52-.13-.99-.38-1.39-.25-.4-.61-.72-1.08-.95-.47-.23-1.02-.34-1.66-.34h-3.36v5.04Z"/>
      <path class="cls-2" d="M52.49,116.6c0,2.07-.39,3.83-1.17,5.28s-1.84,2.56-3.19,3.32c-1.34.76-2.85,1.14-4.53,1.14s-3.2-.38-4.54-1.15c-1.34-.77-2.4-1.87-3.18-3.33-.78-1.45-1.17-3.21-1.17-5.27s.39-3.83,1.17-5.28c.78-1.45,1.84-2.56,3.18-3.32,1.34-.76,2.85-1.14,4.54-1.14s3.18.38,4.53,1.14c1.34.76,2.41,1.87,3.19,3.32.78,1.45,1.17,3.21,1.17,5.28ZM48.42,116.6c0-1.34-.2-2.47-.6-3.39-.4-.92-.96-1.62-1.68-2.09s-1.57-.71-2.54-.71-1.82.24-2.54.71-1.28,1.17-1.68,2.09c-.4.92-.6,2.05-.6,3.39s.2,2.47.6,3.39c.4.92.96,1.62,1.68,2.09s1.57.71,2.54.71,1.82-.24,2.54-.71,1.28-1.17,1.68-2.09c.4-.92.6-2.05.6-3.39Z"/>
      <path class="cls-2" d="M59.01,126.09l-5.43-18.97h4.38l3.14,13.18h.16l3.47-13.18h3.75l3.46,13.21h.17l3.14-13.21h4.38l-5.43,18.97h-3.91l-3.61-12.41h-.15l-3.6,12.41h-3.91Z"/>
      <path class="cls-2" d="M81.05,110.42v-3.31h15.58v3.31h-5.81v15.67h-3.96v-15.67h-5.81Z"/>
      <path class="cls-2" d="M103.21,107.11v18.97h-4.01v-18.97h4.01Z"/>
      <path class="cls-2" d="M106.52,126.09v-18.97h12.79v3.31h-8.77v4.52h8.12v3.31h-8.12v4.53h8.81v3.31h-12.82Z"/>
    </g>
    <path class="cls-2" d="M118.75,102.79l-60.04-40.76-5.62-3.59-35.17,17.21V28.73l31.9,19.04,3.73,2.38,65.2-31.91v28.39l-13.55,12.17,13.55,12.4v31.59ZM60.71,54.71l2.03,1.29,48.77,33.11v-14.72l-17.1-15.64,17.1-15.35v-13.55l-50.79,24.86ZM25.16,41.49v22.55l20.76-10.16-20.76-12.39Z"/>
    <rect class="cls-1" x=".5" y=".5" width="136.21" height="144" rx="5" ry="5"/>
  </g>
</svg>